<?xml version="1.0" encoding="iso-8859-1"?>
<!-- Generator: Adobe Illustrator 16.0.0, SVG Export Plug-In . SVG Version: 6.00 Build 0)  -->
<!DOCTYPE svg PUBLIC "-//W3C//DTD SVG 1.1//EN" "http://www.w3.org/Graphics/SVG/1.1/DTD/svg11.dtd">
<svg version="1.1" id="Capa_1" xmlns="http://www.w3.org/2000/svg" xmlns:xlink="http://www.w3.org/1999/xlink" x="0px" y="0px"
	 width="384.166px" height="384.166px" viewBox="0 0 384.166 384.166" style="enable-background:new 0 0 384.166 384.166;"
	 xml:space="preserve">
<g>
	<g>
		<path d="M375.039,54.986c12.314-12.531,12.146-32.675-0.373-44.967c-12.507-12.293-32.668-12.17-44.963,0.369l-12.091,12.301
			l44.964,44.967L375.039,54.986z"/>
		<path d="M241.676,99.953l-59.438,60.446l-20.059-20.394L69.577,231.03c-8.338,8.22-8.464,21.633-0.245,29.983l4.013,4.092
			l-47.245,46.438c-8.335,8.223-11.634,18.39-7.37,22.738l7.739,7.878L0,368.156l14.866,15.12l26.457-26.004
			c0,0,3.454,3.519,7.716,7.866c4.29,4.353,14.517,1.219,22.854-7.009l47.266-46.426c0,0,4.226,4.3,9.461,9.605
			c5.22,5.326,16.21,2.974,24.548-5.237l92.604-91.021l-18.967-19.3l59.826-60.839L241.676,99.953z"/>
		<polygon points="256.512,84.815 301.475,129.783 347.708,82.769 302.745,37.802 		"/>
	</g>
</g>
<g>
</g>
<g>
</g>
<g>
</g>
<g>
</g>
<g>
</g>
<g>
</g>
<g>
</g>
<g>
</g>
<g>
</g>
<g>
</g>
<g>
</g>
<g>
</g>
<g>
</g>
<g>
</g>
<g>
</g>
</svg>
