<svg height="512pt" viewBox="-47 0 512 512.001" width="512pt" xmlns="http://www.w3.org/2000/svg"><path fill="white" d="m273.253906 455.597656h-.476562c-5.519532 0-10 4.476563-10 10 0 5.519532 4.480468 10 10 10h.476562c5.519532 0 10-4.480468 10-10 0-5.523437-4.480468-10-10-10zm0 0"/><path fill="white" d="m302.339844 455.597656c-5.523438 0-10 4.476563-10 10 0 5.519532 4.476562 10 10 10h23.203125c8.984375 0 16.296875-7.3125 16.296875-16.296875v-135.984375c0-8.984375-7.3125-16.296875-16.296875-16.296875h-232.609375c-8.988282 0-16.296875 7.3125-16.296875 16.296875v135.984375c0 8.984375 7.308593 16.296875 16.296875 16.296875h130.4375c5.519531 0 10-4.480468 10-10 0-5.523437-4.480469-10-10-10h-126.738282v-128.574218h225.203126v128.574218zm0 0"/><path fill="white" d="m130.988281 20c5.519531 0 10-4.476562 10-10s-4.480469-10-10-10h-.035156c-5.519531 0-9.980469 4.476562-9.980469 10s4.492188 10 10.015625 10zm0 0"/><path fill="white" d="m390.289062 215.554688h-12.085937v-94.566407h12.085937c15.539063 0 28.183594-12.644531 28.183594-28.183593 0-15.539063-12.644531-28.179688-28.183594-28.179688h-12.085937v-18.261719c0-25.5625-20.800781-46.363281-46.363281-46.363281h-151.445313c-5.523437 0-10 4.476562-10 10s4.476563 10 10 10h151.441407c14.539062 0 26.367187 11.828125 26.367187 26.363281v419.273438c0 14.535156-11.828125 26.363281-26.367187 26.363281h-245.203126c-14.535156 0-26.363281-11.828125-26.363281-26.363281v-419.273438c0-14.535156 11.828125-26.363281 26.363281-26.363281h14.792969c5.523438 0 10-4.476562 10-10s-4.476562-10-10-10h-14.792969c-25.5625 0-46.363281 20.800781-46.363281 46.363281v18.261719h-12.085937c-15.539063 0-28.183594 12.640625-28.183594 28.179688 0 15.539062 12.644531 28.183593 28.183594 28.183593h12.085937v94.566407h-12.085937c-15.539063 0-28.183594 12.644531-28.183594 28.183593 0 15.539063 12.644531 28.183594 28.183594 28.183594h12.085937v193.714844c0 25.566406 20.800781 46.363281 46.363281 46.363281h245.203126c25.566406 0 46.367187-20.796875 46.367187-46.363281v-193.71875h12.085937c15.539063 0 28.183594-12.640625 28.183594-28.179688 0-15.539062-12.644531-28.183593-28.183594-28.183593zm-362.105468-114.566407c-4.511719 0-8.183594-3.671875-8.183594-8.183593 0-4.511719 3.671875-8.183594 8.183594-8.183594h12.085937v16.363281h-12.085937zm0 150.929688c-4.511719 0-8.183594-3.667969-8.183594-8.179688s3.671875-8.183593 8.183594-8.183593h12.085937v16.363281zm362.105468-167.292969c4.511719 0 8.183594 3.667969 8.183594 8.179688 0 4.511718-3.671875 8.183593-8.183594 8.183593h-12.085937v-16.363281zm0 167.292969h-12.085937v-16.363281h12.085937c4.511719 0 8.183594 3.671874 8.183594 8.183593s-3.671875 8.179688-8.183594 8.179688zm0 0"/><path fill="white" d="m130.160156 290.621094c10.863282 0 20.871094-3.726563 28.828125-9.953125.25-.167969.5-.347657.738281-.542969.171876-.140625.328126-.292969.488282-.441406 10.277344-8.605469 16.828125-21.523438 16.828125-35.945313 0-25.855469-21.03125-46.886719-46.886719-46.886719-25.851562 0-46.882812 21.03125-46.882812 46.886719 0 25.851563 21.035156 46.882813 46.886718 46.882813zm0-73.765625c14.824219 0 26.882813 12.058593 26.882813 26.882812 0 4.734375-1.234375 9.183594-3.394531 13.050781l-15.730469-19.359374c-3.480469-4.285157-9.777344-4.9375-14.066407-1.453126-4.285156 3.484376-4.9375 9.78125-1.453124 14.066407l15.738281 19.371093c-2.519531.785157-5.199219 1.207032-7.976563 1.207032-14.824218 0-26.886718-12.0625-26.886718-26.882813 0-14.824219 12.0625-26.882812 26.886718-26.882812zm0 0"/><path fill="white" d="m281.042969 357.050781h-143.613281c-5.519532 0-10 4.476563-10 10 0 5.519531 4.480468 10 10 10h143.613281c5.519531 0 10-4.480469 10-10 0-5.523437-4.476563-10-10-10zm0 0"/><path fill="white" d="m291.042969 415.566406c0-5.519531-4.476563-10-10-10h-143.613281c-5.519532 0-10 4.480469-10 10 0 5.523438 4.480468 10 10 10h143.613281c5.523437 0 10-4.476562 10-10zm0 0"/><path fill="white" d="m225.628906 197.765625c-5.519531 0-10 4.480469-10 10v7.171875c-11.914062 4.152344-20.488281 15.488281-20.488281 28.800781 0 16.8125 13.675781 30.488281 30.488281 30.488281s30.492188-13.679687 30.492188-30.488281c0-13.3125-8.578125-24.648437-20.492188-28.800781v-7.171875c0-5.519531-4.476562-10-10-10zm0 56.460937c-5.785156 0-10.488281-4.703124-10.488281-10.488281 0-5.785156 4.703125-10.492187 10.488281-10.492187s10.492188 4.707031 10.492188 10.492187c0 5.785157-4.707032 10.488281-10.492188 10.488281zm0 0"/><path fill="white" d="m304.707031 197.765625c-5.523437 0-10 4.480469-10 10v7.171875c-11.914062 4.152344-20.488281 15.488281-20.488281 28.800781 0 16.8125 13.675781 30.488281 30.488281 30.488281s30.492188-13.679687 30.492188-30.488281c0-13.3125-8.578125-24.648437-20.492188-28.800781v-7.171875c0-5.519531-4.476562-10-10-10zm0 56.460937c-5.785156 0-10.488281-4.703124-10.488281-10.488281 0-5.785156 4.703125-10.492187 10.488281-10.492187 5.785157 0 10.492188 4.707031 10.492188 10.492187 0 5.785157-4.707031 10.488281-10.492188 10.488281zm0 0"/><path fill="white" d="m209.238281 46.835938c-5.523437 0-10 4.476562-10 10v7.171874c-11.914062 4.148438-20.492187 15.488282-20.492187 28.796876 0 16.8125 13.679687 30.492187 30.492187 30.492187s30.488281-13.679687 30.488281-30.492187c0-13.308594-8.574218-24.648438-20.488281-28.796876v-7.171874c0-5.523438-4.480469-10-10-10zm0 56.460937c-5.785156 0-10.492187-4.707031-10.492187-10.492187 0-5.785157 4.707031-10.488282 10.492187-10.488282 5.78125 0 10.488281 4.703125 10.488281 10.488282 0 5.785156-4.707031 10.492187-10.488281 10.492187zm0 0"/><path fill="white" d="m304.707031 46.835938c-5.523437 0-10 4.476562-10 10v7.171874c-11.914062 4.148438-20.488281 15.488282-20.488281 28.796876 0 16.8125 13.675781 30.492187 30.488281 30.492187s30.492188-13.679687 30.492188-30.492187c0-13.308594-8.578125-24.648438-20.492188-28.796876v-7.171874c0-5.523438-4.476562-10-10-10zm0 56.460937c-5.785156 0-10.488281-4.707031-10.488281-10.492187 0-5.785157 4.703125-10.488282 10.488281-10.488282 5.785157 0 10.492188 4.703125 10.492188 10.488282 0 5.785156-4.707031 10.492187-10.492188 10.492187zm0 0"/><path fill="white" d="m103.765625 56.835938v7.171874c-11.914063 4.148438-20.492187 15.488282-20.492187 28.796876 0 16.8125 13.679687 30.492187 30.492187 30.492187s30.492187-13.679687 30.492187-30.492187c0-13.308594-8.578124-24.648438-20.492187-28.796876v-7.171874c0-5.523438-4.476563-10-10-10s-10 4.476562-10 10zm10 46.460937c-5.785156 0-10.492187-4.707031-10.492187-10.492187 0-5.785157 4.707031-10.488282 10.492187-10.488282s10.492187 4.703125 10.492187 10.488282c0 5.785156-4.707031 10.492187-10.492187 10.492187zm0 0"/><path fill="white" d="m82.042969 160.53125c0 14.335938 11.664062 26 26 26h203.804687c14.335938 0 26-11.664062 26-26s-11.664062-26-26-26h-203.804687c-14.335938 0-26 11.664062-26 26zm235.800781 0c0 3.253906-2.746094 6-6 6h-203.800781c-3.25 0-6-2.746094-6-6 0-3.25 2.75-6 6-6h203.804687c3.25 0 5.996094 2.75 5.996094 6zm0 0"/></svg>