<?xml version="1.0" encoding="iso-8859-1"?>
<!-- Generator: Adobe Illustrator 19.0.0, SVG Export Plug-In . SVG Version: 6.00 Build 0)  -->
<svg version="1.1" id="Capa_1" xmlns="http://www.w3.org/2000/svg" xmlns:xlink="http://www.w3.org/1999/xlink" x="0px" y="0px"
	 viewBox="0 0 512 512" style="enable-background:new 0 0 512 512;" xml:space="preserve">
<g>
	<g>
		<path fill="white" d="M414.686,0H131.439C115.43,0,102.4,13.03,102.4,29.039v453.922c0,16.008,13.03,29.039,29.039,29.039h283.255
			c16.009,0,29.039-13.03,29.039-29.047V29.039C443.733,13.03,430.703,0,414.686,0z M426.667,482.961
			c0,6.605-5.367,11.972-11.981,11.972H131.439c-6.605,0-11.972-5.367-11.972-11.981V29.039c0-6.605,5.367-11.972,11.972-11.972
			h283.255c6.605,0,11.972,5.367,11.972,11.972V482.961z"/>
	</g>
</g>
<g>
	<g>
		<path fill="white" d="M414.703,0H179.2c-4.71,0-8.533,3.823-8.533,8.533V332.8c0,23.526,19.14,42.667,42.667,42.667H435.2
			c4.71,0,8.533-3.823,8.533-8.533V29.03C443.733,13.022,430.711,0,414.703,0z M426.667,358.4H213.333
			c-14.114,0-25.6-11.486-25.6-25.6V17.067h226.97c6.596,0,11.964,5.367,11.964,11.964V358.4z"/>
	</g>
</g>
<g>
	<g>
		<path fill="white" d="M384.017,34.133H230.383c-14.106,0-25.583,11.477-25.583,25.583V315.75c0,14.106,11.477,25.583,25.583,25.583h153.634
			c14.106,0,25.583-11.477,25.583-25.583V59.716C409.6,45.611,398.123,34.133,384.017,34.133z M392.533,315.75
			c0,4.693-3.823,8.516-8.516,8.516H230.383c-4.693,0-8.516-3.823-8.516-8.516V59.716c0-4.693,3.823-8.516,8.516-8.516h153.634
			c4.693,0,8.516,3.823,8.516,8.516V315.75z"/>
	</g>
</g>
<g>
	<g>
		<path fill="white" d="M307.2,221.867c-23.526,0-42.667,19.14-42.667,42.667c0,23.526,19.14,42.667,42.667,42.667
			c23.526,0,42.667-19.14,42.667-42.667C349.867,241.007,330.726,221.867,307.2,221.867z M307.2,290.133
			c-14.114,0-25.6-11.486-25.6-25.6s11.486-25.6,25.6-25.6s25.6,11.486,25.6,25.6S321.314,290.133,307.2,290.133z"/>
	</g>
</g>
<g>
	<g>
		<path fill="white" d="M307.2,68.267c-23.526,0-42.667,19.14-42.667,42.667c0,23.526,19.14,42.667,42.667,42.667
			c23.526,0,42.667-19.14,42.667-42.667C349.867,87.407,330.726,68.267,307.2,68.267z M307.2,136.533
			c-14.114,0-25.6-11.486-25.6-25.6s11.486-25.6,25.6-25.6s25.6,11.486,25.6,25.6S321.314,136.533,307.2,136.533z"/>
	</g>
</g>
<g>
	<g>
		<path fill="white" d="M307.2,170.667c-4.71,0-8.533,3.823-8.533,8.533v17.067c0,4.71,3.823,8.533,8.533,8.533s8.533-3.823,8.533-8.533V179.2
			C315.733,174.49,311.91,170.667,307.2,170.667z"/>
	</g>
</g>
<g>
	<g>
		<path fill="white" d="M110.933,136.533H76.8c-4.71,0-8.533,3.823-8.533,8.533V230.4c0,4.71,3.823,8.533,8.533,8.533h34.133
			c4.71,0,8.533-3.823,8.533-8.533v-85.333C119.467,140.356,115.644,136.533,110.933,136.533z M102.4,221.867H85.333V153.6H102.4
			V221.867z"/>
	</g>
</g>
<g>
	<g>
		<path fill="white" d="M110.933,375.467H76.8c-4.71,0-8.533,3.823-8.533,8.533v85.333c0,4.71,3.823,8.533,8.533,8.533h34.133
			c4.71,0,8.533-3.823,8.533-8.533V384C119.467,379.29,115.644,375.467,110.933,375.467z M102.4,460.8H85.333v-68.267H102.4V460.8z"
			/>
	</g>
</g>
<g>
	<g>
		<path fill="white" d="M110.933,256H76.8c-4.71,0-8.533,3.823-8.533,8.533v85.333c0,4.71,3.823,8.533,8.533,8.533h34.133
			c4.71,0,8.533-3.823,8.533-8.533v-85.333C119.467,259.823,115.644,256,110.933,256z M102.4,341.333H85.333v-68.267H102.4V341.333z
			"/>
	</g>
</g>
<g>
	<g>
		<path fill="white" d="M392.533,392.533c-4.71,0-8.533,3.823-8.533,8.533v68.267c0,4.71,3.823,8.533,8.533,8.533s8.533-3.823,8.533-8.533
			v-68.267C401.067,396.356,397.244,392.533,392.533,392.533z"/>
	</g>
</g>
<g>
	<g>
		<path fill="white" d="M349.867,392.533c-4.71,0-8.533,3.823-8.533,8.533v68.267c0,4.71,3.823,8.533,8.533,8.533s8.533-3.823,8.533-8.533
			v-68.267C358.4,396.356,354.577,392.533,349.867,392.533z"/>
	</g>
</g>
<g>
	<g>
		<path fill="white" d="M307.2,392.533c-4.71,0-8.533,3.823-8.533,8.533v68.267c0,4.71,3.823,8.533,8.533,8.533s8.533-3.823,8.533-8.533v-68.267
			C315.733,396.356,311.91,392.533,307.2,392.533z"/>
	</g>
</g>
<g>
	<g>
		<path fill="white" d="M264.533,392.533H145.067c-4.71,0-8.533,3.823-8.533,8.533v68.267c0,4.71,3.823,8.533,8.533,8.533h119.467
			c4.71,0,8.533-3.823,8.533-8.533v-68.267C273.067,396.356,269.244,392.533,264.533,392.533z M256,460.8H153.6v-51.2H256V460.8z"/>
	</g>
</g>
<g>
	<g>
		<path fill="white" d="M230.4,426.667h-51.2c-4.71,0-8.533,3.823-8.533,8.533s3.823,8.533,8.533,8.533h51.2c4.71,0,8.533-3.823,8.533-8.533
			S235.11,426.667,230.4,426.667z"/>
	</g>
</g>
<g>
</g>
<g>
</g>
<g>
</g>
<g>
</g>
<g>
</g>
<g>
</g>
<g>
</g>
<g>
</g>
<g>
</g>
<g>
</g>
<g>
</g>
<g>
</g>
<g>
</g>
<g>
</g>
<g>
</g>
</svg>
