<svg height="512pt" viewBox="0 0 512 512" width="512pt" xmlns="http://www.w3.org/2000/svg"><path fill="white" d="m106 0h-106v105h106zm-30 75h-46v-45h46zm0 0"/><path fill="white" d="m241 0h-105v105h105zm-30 75h-45v-45h45zm0 0"/><path fill="white" d="m376 0h-105v105h105zm-30 75h-45v-45h45zm0 0"/><path fill="white" d="m512 0h-106v105h106zm-30 75h-46v-45h46zm0 0"/><path fill="white" d="m106 135h-106v106h106zm-30 76h-46v-46h46zm0 0"/><path fill="white" d="m376 135h-105v106h105zm-30 76h-45v-46h45zm0 0"/><path fill="white" d="m512 135h-106v106h106zm-30 76h-46v-46h46zm0 0"/><path fill="white" d="m106 271h-106v105h106zm-30 75h-46v-45h46zm0 0"/><path fill="white" d="m241 271h-105v105h105zm-30 75h-45v-45h45zm0 0"/><path fill="white" d="m376 271h-105v105h105zm-30 75h-45v-45h45zm0 0"/><path fill="white" d="m512 271h-106v105h106zm-30 75h-46v-45h46zm0 0"/><path fill="white" d="m241 406h-105v106h105zm-30 76h-45v-46h45zm0 0"/><path fill="white" d="m271 512h105v-106h-105zm30-76h45v46h-45zm0 0"/></svg>