<?xml version="1.0" encoding="iso-8859-1"?>
<!-- Generator: Adobe Illustrator 19.0.0, SVG Export Plug-In . SVG Version: 6.00 Build 0)  -->
<svg version="1.1" id="Capa_1" xmlns="http://www.w3.org/2000/svg" xmlns:xlink="http://www.w3.org/1999/xlink" x="0px" y="0px"
	 viewBox="0 0 512 512" style="enable-background:new 0 0 512 512;" xml:space="preserve">
<g>
	<g>
		<g>
			<path fill="white" d="M238.917,349.454c1.442,2.184,3.83,3.368,6.266,3.368c1.419,0,2.854-0.402,4.126-1.242
				c6.422-4.24,12.46-9.173,17.946-14.659c12.786-12.784,22.123-27.917,27.752-44.976c1.298-3.934-0.838-8.175-4.771-9.473
				c-3.932-1.299-8.176,0.838-9.473,4.771c-4.888,14.813-13.001,27.958-24.114,39.069c-4.774,4.775-10.024,9.064-15.605,12.749
				C237.587,341.345,236.635,345.997,238.917,349.454z"/>
			<path fill="white" d="M155.648,161.038c0.71,0,1.433-0.102,2.148-0.315c14.324-4.276,29.716-5.273,44.504-2.88
				c4.092,0.657,7.94-2.119,8.601-6.207c0.662-4.089-2.117-7.939-6.206-8.6c-17.01-2.751-34.711-1.605-51.189,3.314
				c-3.969,1.185-6.226,5.363-5.041,9.332C149.436,158.936,152.418,161.038,155.648,161.038z"/>
			<path fill="white" d="M476.198,63.307H35.802C16.06,63.307,0,79.367,0,99.108V345.3c0,4.143,3.357,7.5,7.5,7.5s7.5-3.357,7.5-7.5V99.108
				c0-11.47,9.332-20.802,20.802-20.802h440.396c11.47,0,20.802,9.332,20.802,20.802V142c0,4.143,3.357,7.5,7.5,7.5
				s7.5-3.357,7.5-7.5V99.108C512,79.367,495.94,63.307,476.198,63.307z"/>
			<path fill="white" d="M242.914,174.204c4.878,3.384,9.499,7.247,13.734,11.482c14.55,14.549,24.105,32.912,27.634,53.103
				c0.637,3.644,3.803,6.21,7.379,6.21c0.429,0,0.863-0.037,1.3-0.113c4.08-0.713,6.81-4.599,6.097-8.679
				c-4.061-23.246-15.059-44.384-31.802-61.128c-4.867-4.866-10.181-9.308-15.793-13.201c-3.404-2.357-8.076-1.516-10.438,1.889
				C238.665,167.17,239.511,171.843,242.914,174.204z"/>
			<path fill="white" d="M504.5,173.495c-4.143,0-7.5,3.357-7.5,7.5v231.896c0,11.47-9.332,20.802-20.802,20.802H35.802
				c-11.47,0-20.802-9.332-20.802-20.802v-28.113c0-4.143-3.357-7.5-7.5-7.5s-7.5,3.357-7.5,7.5v28.113
				c0,19.741,16.06,35.802,35.802,35.802h440.396c19.741,0,35.802-16.061,35.802-35.802V180.995
				C512,176.852,508.643,173.495,504.5,173.495z"/>
			<path fill="white" d="M186.335,303.699c26.301,0,47.698-21.397,47.698-47.699s-21.398-47.699-47.698-47.699
				c-26.302,0-47.699,21.397-47.699,47.699S160.033,303.699,186.335,303.699z M186.335,223.301c18.03,0,32.698,14.669,32.698,32.699
				c0,18.03-14.668,32.699-32.698,32.699c-18.03,0-32.699-14.669-32.699-32.699C153.636,237.97,168.305,223.301,186.335,223.301z"/>
			<path fill="white" d="M87.672,146.983c-2.931-2.926-7.68-2.922-10.606,0.012C47.999,176.132,31.991,214.844,31.991,256
				c0,85.104,69.238,154.343,154.344,154.343c85.105,0,154.343-69.238,154.343-154.343S271.44,101.657,186.335,101.657
				c-27.012,0-53.595,7.081-76.875,20.478c-3.59,2.066-4.825,6.65-2.759,10.241c2.066,3.591,6.652,4.827,10.241,2.759
				c21.007-12.089,45.003-18.478,69.393-18.478c76.834,0,139.343,62.509,139.343,139.343s-62.509,139.343-139.343,139.343
				S46.991,332.834,46.991,256c0-37.156,14.452-72.106,40.694-98.411C90.611,154.656,90.605,149.908,87.672,146.983z"/>
			<path fill="white" d="M46.06,86.066c-12.313,0-22.329,10.017-22.329,22.329s10.017,22.329,22.329,22.329s22.329-10.017,22.329-22.329
				C68.389,96.083,58.372,86.066,46.06,86.066z M46.06,115.725c-4.041,0-7.329-3.288-7.329-7.329s3.288-7.329,7.329-7.329
				s7.329,3.288,7.329,7.329S50.101,115.725,46.06,115.725z"/>
			<path fill="white" d="M415.905,168.517v104.939c0,2.986-1.163,5.795-3.276,7.908l-21.563,21.564c-2.747-1.351-5.779-2.085-8.93-2.085
				c-5.415,0-10.507,2.109-14.335,5.939l-13.656,13.655c-0.005,0.005-0.01,0.009-0.015,0.014s-0.009,0.01-0.014,0.015
				l-13.655,13.655c-7.903,7.905-7.903,20.767,0,28.673l21.027,21.027c0.001,0,0.001,0,0.001,0
				c3.952,3.952,9.144,5.928,14.336,5.928c5.191,0,10.384-1.977,14.337-5.929l13.664-13.664c0.002-0.002,0.003-0.003,0.005-0.005
				s0.003-0.003,0.005-0.005l13.663-13.664c3.83-3.829,5.94-8.921,5.94-14.336c0-3.151-0.734-6.183-2.086-8.93l21.565-21.564
				c10.202-10.203,15.82-23.768,15.82-38.195v-104.94c0-11.809-9.607-21.416-21.417-21.416
				C425.513,147.101,415.905,156.708,415.905,168.517z M379.556,373.212c-2.057,2.057-5.404,2.057-7.461,0h0.001l-21.027-21.026
				c-2.057-2.057-2.057-5.404-0.001-7.46l8.366-8.366l28.487,28.487L379.556,373.212z M406.893,345.874l-8.365,8.365l-28.487-28.486
				l8.366-8.366c0.996-0.996,2.32-1.545,3.729-1.545s2.733,0.549,3.729,1.546l21.028,21.027c0.996,0.996,1.545,2.32,1.545,3.729
				C408.439,343.553,407.89,344.877,406.893,345.874z M443.738,168.517v104.939c0,10.421-4.059,20.22-11.427,27.589l-20.788,20.787
				l-9.075-9.074l20.788-20.788c4.945-4.946,7.669-11.521,7.669-18.515V168.517c0-3.538,2.878-6.416,6.416-6.416
				C440.859,162.101,443.738,164.979,443.738,168.517z"/>
			<path fill="white" d="M349.649,188.258h42.984c4.143,0,7.5-3.357,7.5-7.5s-3.357-7.5-7.5-7.5h-42.984c-4.143,0-7.5,3.357-7.5,7.5
				C342.149,184.9,345.507,188.258,349.649,188.258z"/>
			<path fill="white" d="M392.634,113.894h-73.957c-4.143,0-7.5,3.357-7.5,7.5s3.357,7.5,7.5,7.5h73.957c4.143,0,7.5-3.357,7.5-7.5
				S396.776,113.894,392.634,113.894z"/>
			<path fill="white" d="M46.06,425.934c12.313,0,22.329-10.017,22.329-22.329s-10.017-22.329-22.329-22.329s-22.33,10.016-22.33,22.328
				S33.747,425.934,46.06,425.934z M46.06,396.275c4.041,0,7.329,3.288,7.329,7.329c0,4.041-3.288,7.329-7.329,7.329
				s-7.329-3.288-7.329-7.329C38.73,399.564,42.019,396.275,46.06,396.275z"/>
			<path fill="white" d="M465.94,86.066c-12.313,0-22.329,10.017-22.329,22.329s10.017,22.329,22.329,22.329s22.329-10.017,22.329-22.329
				C488.269,96.083,478.253,86.066,465.94,86.066z M465.94,115.725c-4.041,0-7.329-3.288-7.329-7.329s3.288-7.329,7.329-7.329
				s7.329,3.288,7.329,7.329S469.981,115.725,465.94,115.725z"/>
			<path fill="white" d="M443.611,403.604c0,12.312,10.017,22.329,22.329,22.329s22.329-10.017,22.329-22.329s-10.016-22.329-22.329-22.329
				S443.611,391.292,443.611,403.604z M473.269,403.605c0.001,4.041-3.288,7.329-7.329,7.329c-4.041,0-7.329-3.288-7.329-7.329
				s3.288-7.329,7.329-7.329S473.269,399.564,473.269,403.605z"/>
			<path fill="white" d="M349.649,158.576h42.984c4.143,0,7.5-3.357,7.5-7.5s-3.357-7.5-7.5-7.5h-42.984c-4.143,0-7.5,3.357-7.5,7.5
				S345.507,158.576,349.649,158.576z"/>
		</g>
	</g>
</g>
<g>
</g>
<g>
</g>
<g>
</g>
<g>
</g>
<g>
</g>
<g>
</g>
<g>
</g>
<g>
</g>
<g>
</g>
<g>
</g>
<g>
</g>
<g>
</g>
<g>
</g>
<g>
</g>
<g>
</g>
</svg>
