<svg id="Layer_5" enable-background="new 0 0 64 64" height="512" viewBox="0 0 64 64" width="512" xmlns="http://www.w3.org/2000/svg"><g><path d="m58 9h-52c-2.757 0-5 2.243-5 5v36c0 2.757 2.243 5 5 5h52c2.757 0 5-2.243 5-5v-36c0-2.757-2.243-5-5-5zm-52 2h52c1.654 0 3 1.346 3 3v19h-58v-19c0-1.654 1.346-3 3-3zm52 42h-52c-1.654 0-3-1.346-3-3v-15h58v15c0 1.654-1.346 3-3 3z"/><path d="m9 21c2.206 0 4-1.794 4-4s-1.794-4-4-4-4 1.794-4 4 1.794 4 4 4zm0-6c1.103 0 2 .897 2 2s-.897 2-2 2-2-.897-2-2 .897-2 2-2z"/><path d="m9 31c2.206 0 4-1.794 4-4s-1.794-4-4-4-4 1.794-4 4 1.794 4 4 4zm0-6c1.103 0 2 .897 2 2s-.897 2-2 2-2-.897-2-2 .897-2 2-2z"/><path d="m19 21c2.206 0 4-1.794 4-4s-1.794-4-4-4-4 1.794-4 4 1.794 4 4 4zm0-6c1.103 0 2 .897 2 2s-.897 2-2 2-2-.897-2-2 .897-2 2-2z"/><path d="m19 31c2.206 0 4-1.794 4-4s-1.794-4-4-4-4 1.794-4 4 1.794 4 4 4zm0-6c1.103 0 2 .897 2 2s-.897 2-2 2-2-.897-2-2 .897-2 2-2z"/><path d="m29 21c2.206 0 4-1.794 4-4s-1.794-4-4-4-4 1.794-4 4 1.794 4 4 4zm0-6c1.103 0 2 .897 2 2s-.897 2-2 2-2-.897-2-2 .897-2 2-2z"/><path d="m29 31c2.206 0 4-1.794 4-4s-1.794-4-4-4-4 1.794-4 4 1.794 4 4 4zm0-6c1.103 0 2 .897 2 2s-.897 2-2 2-2-.897-2-2 .897-2 2-2z"/><path d="m59 13h-12v8h12zm-2 6h-8v-4h8z"/><path d="m59 23h-12v8h12zm-2 6h-8v-4h8z"/><path d="m35 13h2v2h-2z"/><path d="m39 13h2v2h-2z"/><path d="m43 13h2v2h-2z"/><path d="m39 17h2v2h-2z"/><path d="m35 17h2v2h-2z"/><path d="m43 17h2v2h-2z"/><path d="m35 21h2v2h-2z"/><path d="m43 21h2v2h-2z"/><path d="m39 21h2v2h-2z"/><path d="m45 25h-10v6h10zm-2 4h-6v-2h6z"/><path d="m45 37c-3.859 0-7 3.14-7 7s3.141 7 7 7 7-3.14 7-7-3.141-7-7-7zm1 2.101v4.899c0 .551-.448 1-1 1s-1-.449-1-1v-4.899c.323-.066.658-.101 1-.101s.677.035 1 .101zm-1 9.899c-2.757 0-5-2.243-5-5 0-1.627.793-3.061 2-3.974v3.974c0 1.654 1.346 3 3 3s3-1.346 3-3v-3.974c1.207.914 2 2.348 2 3.974 0 2.757-2.243 5-5 5z"/><path d="m56 45c-1.654 0-3 1.346-3 3s1.346 3 3 3 3-1.346 3-3-1.346-3-3-3zm0 4c-.552 0-1-.449-1-1s.448-1 1-1 1 .449 1 1-.448 1-1 1z"/><path d="m56 37c-1.654 0-3 1.346-3 3s1.346 3 3 3 3-1.346 3-3-1.346-3-3-3zm0 4c-.552 0-1-.449-1-1s.448-1 1-1 1 .449 1 1-.448 1-1 1z"/><path d="m9 37h-2v1h-2v2h2v11h2v-11h2v-2h-2z"/><path d="m17 37h-2v6h-2v2h2v6h2v-6h2v-2h-2z"/><path d="m21 39h2v12h2v-12h2v-2h-6z"/><path d="m33 37h-2v9h-2v2h2v3h2v-3h2v-2h-2z"/></g></svg>