<?xml version="1.0" encoding="iso-8859-1"?>
<!-- Generator: Adobe Illustrator 19.0.0, SVG Export Plug-In . SVG Version: 6.00 Build 0)  -->
<svg version="1.1" id="Layer_1" xmlns="http://www.w3.org/2000/svg" xmlns:xlink="http://www.w3.org/1999/xlink" x="0px" y="0px"
	 viewBox="0 0 512 512" style="enable-background:new 0 0 512 512;" xml:space="preserve">
<g>
	<g>
		<circle cx="126.009" cy="448.5" r="8.587"/>
	</g>
</g>
<g>
	<g>
		<circle cx="126.009" cy="37.33" r="8.587"/>
	</g>
</g>
<g>
	<g>
		<circle cx="385.989" cy="448.5" r="8.587"/>
	</g>
</g>
<g>
	<g>
		<circle cx="385.989" cy="37.33" r="8.587"/>
	</g>
</g>
<g>
	<g>
		<path d="M415.053,267.566c-4.143,0-7.502,3.359-7.502,7.502V470.82h-22.007h-67.025h-125.04h-67.022H104.45V15.005h303.099
			v211.986c-0.001,4.143,3.358,7.502,7.502,7.502c4.143,0,7.502-3.359,7.502-7.502V12.504C422.553,5.609,416.944,0,410.049,0h-308.1
			c-6.895,0-12.504,5.609-12.504,12.504v460.817c0,6.895,5.609,12.504,12.504,12.504h17.006v13.671
			c0,6.895,5.609,12.504,12.504,12.504h57.019c6.895,0,12.504-5.609,12.504-12.504v-13.671h110.036v13.671
			c0,6.895,5.609,12.504,12.504,12.504h57.019c6.895,0,12.504-5.609,12.504-12.504v-13.671h17.006
			c6.895,0,12.504-5.609,12.504-12.504V275.068C422.555,270.925,419.196,267.566,415.053,267.566z M185.976,496.995h-52.017v-11.17
			h52.017V496.995z M378.039,496.995h-52.017v-11.17h52.017V496.995z"/>
	</g>
</g>
<g>
	<g>
		<path d="M255.999,78.103c-34.554,0-62.665,28.111-62.665,62.665s28.111,62.665,62.665,62.665s62.665-28.111,62.665-62.665
			S290.553,78.103,255.999,78.103z M255.999,188.428c-26.28,0-47.66-21.38-47.66-47.66c0-26.28,21.38-47.66,47.66-47.66
			c26.28,0,47.66,21.38,47.66,47.66C303.659,167.048,282.279,188.428,255.999,188.428z"/>
	</g>
</g>
<g>
	<g>
		<path d="M255.999,114.136c-14.685,0-26.632,11.947-26.632,26.632s11.947,26.632,26.632,26.632s26.632-11.947,26.632-26.632
			S270.684,114.136,255.999,114.136z M255.999,152.395c-6.411,0-11.627-5.216-11.627-11.627s5.216-11.627,11.627-11.627
			s11.627,5.216,11.627,11.627S262.41,152.395,255.999,152.395z"/>
	</g>
</g>
<g>
	<g>
		<path d="M255.999,235.41c-53.581,0-97.172,43.591-97.172,97.172s43.591,97.172,97.172,97.172s97.172-43.591,97.172-97.172
			S309.58,235.41,255.999,235.41z M255.999,414.749c-45.307,0-82.167-36.86-82.167-82.167s36.86-82.167,82.167-82.167
			s82.167,36.86,82.167,82.167S301.306,414.749,255.999,414.749z"/>
	</g>
</g>
<g>
	<g>
		<path d="M255.999,267.567c-37.072,0-67.232,30.16-67.232,67.232c0,37.072,30.16,67.232,67.232,67.232s67.232-30.16,67.232-67.232
			C323.231,297.727,293.071,267.567,255.999,267.567z M255.999,387.026c-28.798,0-52.227-23.429-52.227-52.227
			s23.429-52.228,52.227-52.228c28.798,0,52.227,23.429,52.227,52.227C308.226,363.596,284.797,387.026,255.999,387.026z"/>
	</g>
</g>
<g>
	<g>
		<path d="M255.999,299.8c-18.076,0-32.782,14.706-32.782,32.782s14.706,32.782,32.782,32.782s32.782-14.706,32.782-32.782
			C288.781,314.506,274.075,299.8,255.999,299.8z M255.999,350.359c-9.802,0-17.777-7.975-17.777-17.777s7.975-17.777,17.777-17.777
			s17.777,7.975,17.777,17.777S265.801,350.359,255.999,350.359z"/>
	</g>
</g>
<g>
</g>
<g>
</g>
<g>
</g>
<g>
</g>
<g>
</g>
<g>
</g>
<g>
</g>
<g>
</g>
<g>
</g>
<g>
</g>
<g>
</g>
<g>
</g>
<g>
</g>
<g>
</g>
<g>
</g>
</svg>
