<svg id="Capa_1" enable-background="new 0 0 512 512" height="512" viewBox="0 0 512 512" width="512" xmlns="http://www.w3.org/2000/svg"><path d="m472.436 56.113h-432.872c-21.815 0-39.564 17.748-39.564 39.564v320.646c0 21.816 17.749 39.564 39.564 39.564h432.871c21.816 0 39.564-17.749 39.564-39.564v-320.646c.001-21.816-17.748-39.564-39.563-39.564zm-432.872 15h432.871c13.545 0 24.564 11.02 24.564 24.564v152.823h-481.999v-152.823c0-13.545 11.02-24.564 24.564-24.564zm280.563 225.481c-4.142 0-7.5 3.358-7.5 7.5v136.793h-49.127v-58.378c9.308-3.139 16.032-11.946 16.032-22.3v-96.709h33.095v8.529c0 4.142 3.358 7.5 7.5 7.5s7.5-3.358 7.5-7.5v-8.529h33.099v96.709c0 10.353 6.724 19.16 16.032 22.299v58.378h-49.131v-136.792c0-4.142-3.358-7.5-7.5-7.5zm-192.387 120.242c-4.142 0-7.5 3.358-7.5 7.5v16.551h-49.127v-58.378c9.308-3.139 16.032-11.946 16.032-22.3v-96.709h33.095v128.777c0 4.142 3.358 7.5 7.5 7.5s7.5-3.358 7.5-7.5v-128.777h33.099v96.709c0 10.354 6.724 19.16 16.032 22.3v58.378h-49.131v-16.551c0-4.142-3.358-7.5-7.5-7.5zm-72.659-153.336h17.064v96.709c0 4.705-3.828 8.532-8.532 8.532s-8.532-3.828-8.532-8.532zm145.322 0v96.709c0 4.705-3.828 8.532-8.532 8.532s-8.532-3.828-8.532-8.532v-96.709zm-1.032 119.009c9.308-3.139 16.032-11.946 16.032-22.3v-96.709h17.064v96.709c0 10.354 6.724 19.16 16.032 22.3v58.378h-49.129v-58.378zm65.161-119.009v96.709c0 4.705-3.828 8.532-8.532 8.532s-8.532-3.828-8.532-8.532v-96.709zm128.259 0v96.709c0 4.705-3.828 8.532-8.533 8.532s-8.532-3.828-8.532-8.532v-96.709zm-1.033 119.009c9.308-3.139 16.033-11.946 16.033-22.3v-96.709h17.064v96.709c0 10.354 6.724 19.16 16.032 22.3v58.378h-49.129zm56.629-13.767c-4.705 0-8.532-3.828-8.532-8.532v-96.71h17.064v96.709c0 4.705-3.827 8.533-8.532 8.533zm-433.387 47.581v-152.823h25.081v96.709c0 10.354 6.724 19.16 16.032 22.3v58.378h-16.549c-13.544 0-24.564-11.019-24.564-24.564zm457.436 24.564h-16.548v-58.378c9.308-3.139 16.032-11.946 16.032-22.3v-96.709h25.08v152.823c0 13.545-11.02 24.564-24.564 24.564z"/><path d="m67.621 223.419c15.186 0 27.54-12.354 27.54-27.541 0-15.186-12.354-27.54-27.54-27.54s-27.541 12.354-27.541 27.54c.001 15.187 12.355 27.541 27.541 27.541zm0-40.08c6.915 0 12.54 5.625 12.54 12.54s-5.625 12.541-12.54 12.541-12.541-5.625-12.541-12.541c.001-6.915 5.626-12.54 12.541-12.54z"/><path d="m67.621 151.274c15.186 0 27.54-12.354 27.54-27.541s-12.354-27.541-27.54-27.541-27.541 12.354-27.541 27.541 12.355 27.541 27.541 27.541zm0-40.081c6.915 0 12.54 5.625 12.54 12.541s-5.625 12.541-12.54 12.541-12.541-5.625-12.541-12.541 5.626-12.541 12.541-12.541z"/><path d="m139.766 223.419c15.186 0 27.541-12.354 27.541-27.541 0-15.186-12.354-27.54-27.541-27.54s-27.541 12.354-27.541 27.54c.001 15.187 12.355 27.541 27.541 27.541zm0-40.08c6.915 0 12.541 5.625 12.541 12.54s-5.625 12.541-12.541 12.541-12.541-5.625-12.541-12.541c.001-6.915 5.626-12.54 12.541-12.54z"/><path d="m139.766 151.274c15.186 0 27.541-12.354 27.541-27.541s-12.354-27.541-27.541-27.541-27.541 12.354-27.541 27.541 12.355 27.541 27.541 27.541zm0-40.081c6.915 0 12.541 5.625 12.541 12.541s-5.625 12.541-12.541 12.541-12.541-5.625-12.541-12.541 5.626-12.541 12.541-12.541z"/><path d="m207.903 191.355h96.193c8.556 0 15.516-6.96 15.516-15.516v-64.129c0-8.556-6.96-15.516-15.516-15.516h-96.193c-8.556 0-15.516 6.96-15.516 15.516v64.129c0 8.556 6.961 15.516 15.516 15.516zm-.516-79.646c0-.285.231-.516.516-.516h96.193c.285 0 .516.231.516.516v64.129c0 .285-.231.516-.516.516h-96.193c-.285 0-.516-.231-.516-.516z"/><path d="m264.016 208.419h-16.032c-4.142 0-7.5 3.358-7.5 7.5s3.358 7.5 7.5 7.5h16.032c4.142 0 7.5-3.358 7.5-7.5s-3.358-7.5-7.5-7.5z"/><path d="m304.097 208.419h-8.016c-4.142 0-7.5 3.358-7.5 7.5s3.358 7.5 7.5 7.5h8.016c4.142 0 7.5-3.358 7.5-7.5s-3.358-7.5-7.5-7.5z"/><path d="m215.919 208.419h-8.016c-4.142 0-7.5 3.358-7.5 7.5s3.358 7.5 7.5 7.5h8.016c4.142 0 7.5-3.358 7.5-7.5s-3.357-7.5-7.5-7.5z"/><path d="m352.709 206.155v9.765c0 4.142 3.358 7.5 7.5 7.5s7.5-3.358 7.5-7.5v-9.765c9.308-3.139 16.032-11.946 16.032-22.3s-6.724-19.16-16.032-22.3v-57.862c0-4.142-3.358-7.5-7.5-7.5s-7.5 3.358-7.5 7.5v57.862c-9.308 3.139-16.032 11.946-16.032 22.3s6.724 19.16 16.032 22.3zm7.5-30.832c4.705 0 8.532 3.828 8.532 8.532s-3.828 8.532-8.532 8.532-8.532-3.828-8.532-8.532 3.828-8.532 8.532-8.532z"/><path d="m448.903 206.155v9.765c0 4.142 3.358 7.5 7.5 7.5s7.5-3.358 7.5-7.5v-9.765c9.308-3.139 16.032-11.946 16.032-22.3s-6.724-19.16-16.032-22.3v-57.862c0-4.142-3.358-7.5-7.5-7.5s-7.5 3.358-7.5 7.5v57.862c-9.308 3.139-16.032 11.946-16.032 22.3s6.724 19.16 16.032 22.3zm7.5-30.832c4.705 0 8.532 3.828 8.532 8.532s-3.828 8.532-8.532 8.532-8.532-3.828-8.532-8.532 3.828-8.532 8.532-8.532z"/><path d="m400.807 158.058v57.862c0 4.142 3.358 7.5 7.5 7.5s7.5-3.358 7.5-7.5v-57.862c9.308-3.139 16.032-11.946 16.032-22.3s-6.724-19.161-16.032-22.3v-9.765c0-4.142-3.358-7.5-7.5-7.5s-7.5 3.358-7.5 7.5v9.765c-9.308 3.139-16.032 11.946-16.032 22.3-.001 10.354 6.723 19.16 16.032 22.3zm7.5-30.832c4.705 0 8.532 3.828 8.532 8.533s-3.828 8.532-8.532 8.532-8.532-3.828-8.532-8.532c-.001-4.706 3.827-8.533 8.532-8.533z"/></svg>